<?xml version="1.0" standalone="no"?>
<!DOCTYPE svg PUBLIC "-//W3C//DTD SVG 20010904//EN"
 "http://www.w3.org/TR/2001/REC-SVG-20010904/DTD/svg10.dtd">
<svg version="1.0" xmlns="http://www.w3.org/2000/svg"
 width="1080.000000pt" height="1080.000000pt" viewBox="0 0 1080.000000 1080.000000"
 preserveAspectRatio="xMidYMid meet">
<metadata>
Created by potrace 1.14, written by Peter Selinger 2001-2017
</metadata>
<g transform="translate(0.000000,1080.000000) scale(0.100000,-0.100000)"
fill="#000000" stroke="none">
<path d="M5080 10794 c-503 -29 -1067 -146 -1540 -321 -1083 -399 -2004 -1126
-2641 -2086 -488 -734 -778 -1545 -875 -2447 -22 -203 -30 -675 -15 -885 36
-506 124 -951 280 -1406 323 -943 903 -1781 1672 -2417 688 -567 1526 -964
2389 -1131 397 -77 604 -96 1050 -96 372 0 483 7 755 46 1431 205 2698 953
3566 2106 702 933 1079 2066 1079 3238 0 616 -94 1186 -289 1756 -492 1438
-1571 2605 -2966 3207 -509 220 -1037 358 -1595 417 -148 16 -711 28 -870 19z
m1747 -1144 c51 -31 56 -49 51 -192 -3 -71 -1 -131 3 -134 5 -3 45 6 89 21 99
31 118 31 161 2 25 -17 40 -38 55 -82 25 -69 38 -79 227 -171 107 -52 128 -59
175 -57 68 3 116 -17 137 -57 13 -25 16 -55 13 -145 -2 -62 -1 -116 2 -118 3
-3 73 14 155 39 258 75 300 77 343 14 l22 -33 0 -3049 c0 -2815 -1 -3051 -16
-3074 -23 -34 -50 -47 -189 -84 -66 -17 -169 -45 -230 -62 -60 -17 -155 -43
-210 -58 -98 -28 -377 -105 -770 -214 -110 -31 -207 -56 -216 -56 -9 0 -19 -3
-23 -7 -4 -4 -31 -13 -59 -19 -29 -6 -92 -23 -142 -38 -49 -16 -139 -41 -200
-58 -60 -16 -182 -50 -270 -75 -88 -25 -203 -56 -255 -69 -52 -13 -185 -49
-295 -80 -621 -174 -611 -171 -665 -183 -19 -5 -105 -29 -190 -54 -365 -107
-692 -128 -1010 -67 -121 24 -181 42 -265 80 -33 15 -71 31 -85 35 -98 31
-293 208 -347 315 l-28 55 -3 3143 c-2 3501 -8 3221 67 3330 61 90 161 177
258 225 54 28 219 80 368 117 113 27 473 123 760 202 121 33 240 65 265 69 25
5 126 32 225 60 99 27 196 54 215 59 19 5 125 33 235 63 195 54 335 91 543
147 56 15 105 30 109 33 3 4 15 7 26 7 21 0 293 73 652 176 121 34 234 63 250
63 17 1 44 -8 62 -19z"/>
<path d="M6629 9420 c-9 -5 -56 -19 -105 -30 -49 -12 -156 -40 -239 -64 -187
-55 -421 -119 -587 -162 -70 -18 -212 -56 -315 -84 -343 -94 -507 -139 -593
-160 -80 -20 -192 -50 -760 -205 -304 -83 -571 -154 -640 -170 -147 -36 -224
-73 -299 -145 -68 -65 -95 -120 -95 -195 0 -72 19 -116 82 -186 145 -161 434
-266 787 -285 178 -10 288 5 580 76 56 14 425 113 740 200 116 32 287 79 380
105 94 25 197 54 230 64 33 10 83 23 110 30 41 10 263 69 415 111 19 6 123 34
230 64 107 30 256 71 330 91 74 21 198 55 275 75 77 20 195 52 263 71 l122 33
0 73 c0 58 -3 73 -15 73 -17 0 -123 -28 -290 -77 -66 -20 -179 -50 -250 -69
-72 -18 -186 -49 -255 -69 -68 -20 -142 -40 -164 -45 -23 -4 -97 -25 -166 -45
-69 -21 -197 -56 -285 -80 -88 -23 -221 -59 -295 -80 -74 -20 -151 -41 -170
-46 -19 -5 -116 -32 -215 -60 -99 -28 -196 -55 -215 -58 -19 -4 -134 -35 -255
-69 -219 -61 -560 -154 -770 -211 -279 -75 -288 -74 -510 74 -60 40 -166 107
-235 150 -161 100 -170 108 -170 159 1 45 13 66 48 85 27 14 152 52 232 71 30
7 132 34 225 60 94 27 211 58 260 70 50 11 126 32 170 45 87 25 144 41 520
141 511 136 1123 302 1365 369 107 30 205 55 217 55 12 0 25 5 28 10 3 6 14
10 23 10 9 0 81 17 160 37 l142 38 0 72 c0 40 0 76 1 81 0 11 -24 13 -42 2z"/>
<path d="M6780 9084 c-107 -30 -222 -62 -255 -71 -33 -8 -103 -28 -155 -44
-52 -15 -133 -37 -180 -49 -47 -12 -179 -48 -295 -80 -550 -151 -634 -174
-695 -187 -36 -8 -144 -36 -240 -63 -341 -94 -596 -163 -706 -190 -60 -16
-168 -44 -240 -63 -71 -19 -182 -47 -246 -62 -65 -15 -118 -32 -118 -36 0 -5
14 -16 31 -24 17 -9 78 -47 137 -84 59 -37 115 -70 124 -74 24 -9 117 12 368
82 352 98 548 152 680 186 69 18 190 51 270 74 80 22 235 65 345 95 259 70
635 173 850 232 94 26 229 62 300 81 72 18 193 52 270 75 77 22 164 45 193 50
28 6 52 13 52 16 -1 4 -39 29 -85 56 -46 28 -104 69 -127 93 -24 23 -52 42
-63 42 -11 0 -108 -25 -215 -55z"/>
<path d="M7945 8550 c-38 -10 -167 -46 -285 -79 -183 -52 -495 -138 -675 -186
-27 -7 -131 -36 -230 -64 -99 -28 -290 -80 -425 -117 -319 -86 -619 -169 -905
-248 -398 -111 -640 -176 -653 -176 -7 0 -20 -4 -30 -9 -9 -4 -46 -16 -82 -25
-36 -9 -119 -31 -185 -49 l-120 -33 -3 -2909 c-1 -1600 1 -2912 5 -2916 5 -4
76 12 158 35 83 24 245 69 360 101 116 32 311 86 435 120 124 34 313 86 420
115 226 61 517 141 850 234 129 37 240 66 246 66 6 0 110 29 230 65 120 36
226 65 234 65 8 0 107 27 220 59 113 33 266 76 340 96 74 21 150 42 168 47
l33 9 -1 2877 c-1 1582 -4 2892 -7 2910 -6 36 -4 36 -98 12z m-322 -511 c38
-21 56 -52 57 -97 0 -67 -31 -91 -160 -125 -58 -15 -193 -52 -300 -83 -107
-30 -211 -59 -230 -64 -34 -9 -246 -67 -630 -174 -107 -29 -206 -56 -220 -59
-14 -2 -124 -33 -245 -67 -481 -136 -672 -189 -725 -203 -30 -8 -121 -33 -201
-57 -144 -42 -145 -43 -181 -26 -44 21 -72 73 -63 116 8 36 47 76 83 84 15 4
56 15 92 26 94 27 502 141 735 204 241 67 606 168 885 246 113 31 313 87 445
123 132 37 290 80 350 97 61 17 137 39 170 50 70 22 108 25 138 9z m20 -493
c50 -47 46 -124 -9 -161 -17 -11 -77 -33 -135 -48 -130 -35 -521 -144 -734
-204 -88 -25 -194 -54 -235 -65 -41 -10 -167 -45 -280 -77 -113 -33 -299 -85
-415 -116 -276 -75 -252 -68 -395 -111 -159 -46 -293 -83 -349 -96 -87 -20
-151 24 -151 105 0 45 35 82 91 97 24 6 105 29 179 50 74 21 243 68 375 105
132 37 319 90 415 117 96 28 216 61 265 73 50 13 173 46 275 75 449 125 617
172 795 223 220 63 270 68 308 33z m-24 -441 c30 -15 41 -39 41 -93 0 -63 -32
-82 -250 -141 -107 -29 -203 -57 -212 -62 -10 -5 -25 -9 -34 -9 -15 0 -393
-103 -439 -120 -18 -7 -305 -86 -395 -110 -19 -5 -125 -34 -235 -64 -110 -31
-308 -85 -440 -121 -132 -37 -328 -91 -435 -122 -107 -30 -227 -64 -267 -74
-39 -10 -83 -23 -98 -29 -100 -38 -192 49 -147 140 9 19 28 40 42 47 14 6 113
36 220 66 107 30 263 74 345 97 83 24 197 55 255 70 58 15 152 41 210 58 58
17 152 42 210 57 58 15 179 48 270 75 91 27 219 63 285 80 66 17 172 47 235
66 63 19 137 39 165 45 41 8 354 95 515 144 61 18 125 18 159 0z m-2785 -1242
c24 -11 38 -26 44 -47 5 -17 10 -776 11 -1716 1 -1058 5 -1686 11 -1688 5 -2
114 26 242 62 501 139 673 186 684 186 6 0 105 27 220 59 115 33 247 68 294
79 47 12 140 37 206 56 67 20 141 40 165 45 24 5 76 18 114 29 39 11 140 38
225 61 85 23 235 64 332 91 97 28 190 50 206 50 19 0 41 -10 61 -29 25 -23 31
-37 31 -71 0 -23 -5 -50 -10 -61 -16 -28 -73 -53 -180 -79 -52 -13 -171 -44
-265 -71 -93 -26 -208 -57 -255 -69 -81 -20 -165 -43 -685 -185 -126 -34 -266
-71 -310 -82 -79 -20 -171 -45 -625 -169 -589 -160 -570 -157 -619 -128 -58
34 -55 -90 -57 1834 -2 1192 1 1784 8 1802 10 28 59 57 95 58 12 0 38 -8 57
-17z"/>
<path d="M3006 7793 c-3 -4 -6 -222 -6 -486 l0 -479 63 -62 c66 -66 191 -147
254 -166 73 -21 178 -48 214 -54 l36 -6 4 47 c2 27 2 255 -1 507 l-5 459 -90
23 c-147 36 -318 112 -412 183 -28 22 -54 37 -57 34z"/>
<path d="M3790 4596 l0 -2929 153 6 c83 4 162 10 175 13 l22 6 -2 2916 -3
2916 -172 0 -173 1 0 -2929z"/>
<path d="M2998 6488 c-4 -95 -1 -109 29 -140 96 -102 278 -196 439 -227 33 -7
69 -14 82 -17 22 -4 22 -3 22 111 l0 115 -34 0 c-121 0 -379 96 -485 179 -21
17 -42 31 -45 31 -3 0 -7 -24 -8 -52z"/>
<path d="M3000 4800 c0 -1253 1 -1292 19 -1328 11 -20 39 -55 63 -78 41 -39
147 -114 162 -114 4 0 27 -9 51 -20 43 -20 172 -53 248 -63 l37 -6 0 382 c0
210 -3 816 -7 1348 l-6 965 -96 17 c-164 28 -289 75 -407 153 -28 19 -54 34
-58 34 -3 0 -6 -581 -6 -1290z"/>
<path d="M3000 3101 l0 -92 47 -50 c52 -55 182 -138 257 -163 72 -24 212 -56
246 -56 l30 0 0 118 0 118 -97 13 c-54 7 -131 24 -171 37 -78 26 -221 94 -243
117 -8 7 -26 21 -41 31 l-28 18 0 -91z"/>
<path d="M3000 2385 c0 -363 -1 -358 70 -438 51 -58 108 -98 209 -147 90 -44
268 -103 288 -96 11 5 13 77 11 408 l-3 403 -69 8 c-96 10 -210 41 -308 83
-78 33 -159 80 -166 97 -2 4 -10 7 -18 7 -12 0 -14 -51 -14 -325z"/>
</g>
</svg>
